#!OML:ASF E:/inclinewalkrobotboard/Project1/Captureday1/Session1/subject1.ASF
:FULLY-SPECIFIED
:DEGREES
113
root 0 0 0 1.039437777341917 -3.672384880595766 1.8304071148353946
lowerback 11.978650586843774 0.8495048867636329 -0.06290393366137667
upperback -4.230546579233208 1.0787585710053853 -0.5428206697164476
thorax -11.341396442392833 0.4937964862699247 -0.7840715971378664
lowerneck -5.780358218866121 1.486441515233468 4.56492133980119
upperneck 18.034566322914333 2.9414855508965596 -8.344030747745489
head 6.589195524577908 1.074099928156837 -3.2247949257197206
rclavicle 1.9520634701581432E-16 -2.034567574560595E-15
rhumerus 19.885743611514556 14.346973625314696 -47.737979385451574
rradius 72.23007567321962
rwrist 27.130284410132404
rhand -34.62960104976386 -57.10515109915744
rfingers 7.125020000000035
rthumb -7.782611735766274 -87.15970973230864
lclavicle -1.2230104416604464E-16 -4.486545422024872E-16
lhumerus 21.02924639379981 -12.454708095030444 45.30246021857165
lradius 70.02871675304856
lwrist -22.264389986267535
lhand -44.78326077490878 -70.24647127572138
lfingers 7.125020000000026
lthumb -17.571350925619292 -40.924810156078195
rfemur -24.697250099840737 -2.3149244229018406 17.11121890554116
rtibia 54.509372586041934
rfoot -28.994384906374936 -16.654631704167468
rtoes -18.495668497600516
lfemur -25.901248137519953 2.4394824562330335 -18.06387318702554
ltibia 53.1981872028757
lfoot -30.790926975629652 -3.457450114284679
ltoes -20.875286371885412
114
root 0 0 0 1.0394822020139807 -3.6723032474300807 1.8304340400636043
lowerback 11.978650884904962 0.8495145862024338 -0.06293695362160862
upperback -4.230572284323818 1.0787657051855764 -0.5428392607898015
thorax -11.341424978527545 0.49380062228408395 -0.7840749665225304
lowerneck -5.780564076184515 1.486455326050217 4.564878517820003
upperneck 18.03468321369564 2.9414931391925743 -8.343925208646638
head 6.589268633263139 1.0741046064215065 -3.224754647190998
rclavicle 1.9458533364040954E-16 -2.03502052343267E-15
rhumerus 19.885403510899316 14.346635057912241 -47.73809100543154
rradius 72.2298528671334
rwrist 27.130365195485396
rhand -34.629977369157146 -57.10557659654715
rfingers 7.125020000000035
rthumb -7.782971807624275 -87.16013736319239
lclavicle -1.228355360759277E-16 -4.490503138487484E-16
lhumerus 21.029107970222206 -12.454473705167814 45.302704651915285
lradius 70.02856973363225
lwrist -22.26434701132654
lhand -44.78339491856703 -70.2472824446123
lfingers 7.125020000000026
lthumb -17.571478466900903 -40.92563976085786
rfemur -24.697288104037515 -2.3149352481324614 17.111214194006386
rtibia 54.50942972382678
rfoot -28.994338581248464 -16.654644799834827
rtoes -18.495583619621087
lfemur -25.901570832425264 2.439417273939479 -18.063942270259435
ltibia 53.198293602143714
lfoot -30.790950035326084 -3.457464406599164
ltoes -20.874554732799865
115
root 0 0 0 1.0393089058525007 -3.672754585948357 1.8302528799915276
lowerback 11.978665432025602 0.8494565446567541 -0.06279045535693978
upperback -4.230451458625161 1.078721039011642 -0.5427343879186921
thorax -11.341322173848349 0.4937743006645625 -0.7840369627417554
lowerneck -5.779472325155514 1.4863846683010455 4.565044893034274
upperneck 18.034073234868192 2.941471593201004 -8.344411202764029
head 6.588888895661958 1.0740750259051524 -3.224925991705593
rclavicle 1.8396687617675114E-16 -2.0264657402762125E-15
rhumerus 19.886940362880665 14.348568690450659 -47.73711018958273
rradius 72.23048467967871
rwrist 27.12905719892268
rhand -34.62547886764012 -57.099262678169396
rfingers 7.125020000000035
rthumb -7.778544429846786 -87.15353682192101
lclavicle -1.3400379113037453E-16 -4.386767220967967E-16
lhumerus 21.03054465851535 -12.456756509728852 45.30119503435814
lradius 70.02917525925204
lwrist -22.263860210184728
lhand -44.782119246529106 -70.23652229840943
lfingers 7.125020000000026
lthumb -17.57012305916115 -40.9151579919299
rfemur -24.695898719424036 -2.3136886818794102 17.111406543617523
rtibia 54.5025894783805
rfoot -28.995152132084645 -16.654431620210303
rtoes -18.494394850157526
lfemur -25.897633785719346 2.439124040464053 -18.063292499249474
ltibia 53.19360444642972
lfoot -30.794902521097523 -3.4554314839842455
ltoes -20.882506734482696
116
root 0 0 0 1.0393290337874297 -3.6726301820039264 1.8303345950607102
lowerback 11.978642538304586 0.8494816328518735 -0.06281912370649884
upperback -4.230486184669682 1.0787426254032149 -0.5427703150482635
thorax -11.341325405782598 0.4937871022428485 -0.7840604981829501
lowerneck -5.779808368463507 1.4864095344645558 4.565036837157326
upperneck 18.034277597742257 2.941473478161092 -8.344314111185582
head 6.589007978252473 1.074091194425459 -3.224902550272941
rclavicle 2.07065700830862E-16 -2.034730595031986E-15
rhumerus 19.887543235862847 14.348809770612686 -47.7378149908465
rradius 72.23143236121362
rwrist 27.129752535176408
rhand -34.628393927748576 -57.10398767242026
rfingers 7.125020000000035
rthumb -7.781467186778617 -87.15850742214869
lclavicle -1.1094581837415138E-16 -4.5042350446001415E-16
lhumerus 21.02953666950056 -12.455390596263056 45.30156457759838
lradius 70.02922136351204
lwrist -22.2647208287552
lhand -44.78269799289857 -70.24363677496648
lfingers 7.125020000000026
lthumb -17.570802464670038 -40.921953475042315
rfemur -24.696785330129153 -2.3147193046777024 17.111225034171802
rtibia 54.508193648773464
rfoot -28.994979630006778 -16.654656591653758
rtoes -18.496591055804917
lfemur -25.89975751636489 2.4394632105901595 -18.063624544109857
ltibia 53.196421228509145
lfoot -30.791713292492012 -3.4570346000734755
ltoes -20.87871691074334
117
root 0 0 0 1.0393717655112333 -3.6725172986988093 1.8303721737595673
lowerback 11.978639348915253 0.8494943360793088 -0.06285873282648802
upperback -4.230515237384733 1.07875193055139 -0.5427954700390171
thorax -11.341354693660923 0.49379255846387915 -0.7840676987915702
lowerneck -5.780060435692884 1.4864291572322479 4.564993135650891
upperneck 18.034419410017904 2.9414850877089 -8.344191954468986
head 6.589096697328669 1.0740984596504997 -3.2248570316276965
rclavicle 1.988597151448142E-16 -2.0346335639113824E-15
rhumerus 19.88658651345562 14.347804774915968 -47.737790942197094
rradius 72.23069446001854
rwrist 27.130108600175575
rhand -34.62894119714473 -57.10455652690953
rfingers 7.125020000000035
rthumb -7.781978669628446 -87.15911409764017
lclavicle -1.1866133649027648E-16 -4.493477580782472E-16
lhumerus 21.029458453789168 -12.455087988617604 45.301994296384436
lradius 70.02900453568307
lwrist -22.264550440142507
lhand -44.783009541359434 -70.24515444167645
lfingers 7.125020000000026
lthumb -17.57111309615662 -40.92345169035025
rfemur -24.697110322033 -2.314884055223463 17.111251718775897
rtibia 54.50912368213075
rfoot -28.99464543617181 -16.65460116128327
rtoes -18.496024136590457
lfemur -25.90045156706928 2.439524718088062 -18.063752954726912
ltibia 53.19761632372513
lfoot -30.79108044279367 -3.4573923859470397
ltoes -20.877018208282358
118
root 0 0 0 1.0394425912266994 -3.672375870839901 1.8304101692950576
lowerback 11.978650378695283 0.8495060239628495 -0.06290766766305653
upperback -4.230549584636062 1.0787594212624552 -0.5428227829616401
thorax -11.341399641245923 0.49379697799563715 -0.7840719970590182
lowerneck -5.780381235645859 1.4864432315400582 4.564916741924784
upperneck 18.0345798535024 2.9414866439511265 -8.34401907400309
head 6.589203842914031 1.0741005627312608 -3.224790474987696
rclavicle 1.9510583859631396E-16 -2.0345838035112535E-15
rhumerus 19.885705802784493 14.346936727585653 -47.73799129319123
rradius 72.23004985448108
rwrist 27.130292160213628
rhand -34.62963910094013 -57.10519127472933
rfingers 7.125020000000035
rthumb -7.782648058364774 -87.15975035098727
lclavicle -1.2240717600225702E-16 -4.486538879811523E-16
lhumerus 21.02923393367975 -12.454685528968735 45.30248556045868
lradius 70.02870196119245
lwrist -22.264383856395202
lhand -44.783274809997245 -70.24655232378447
lfingers 7.125020000000026
lthumb -17.571364374361355 -40.924892469017074
rfemur -24.697251838270116 -2.3149244929959107 17.11121795046193
rtibia 54.50937284108495
rfoot -28.9943774230238 -16.654631627193854
rtoes -18.4956624369079
lfemur -25.90127050828763 2.439472863154889 -18.063880059865333
ltibia 53.19818395983539
lfoot -30.79093088747338 -3.4574550126621677
ltoes -20.875228053400196
